<?xml version="1.0" encoding="utf-8"?>
<!-- Generator: Adobe Illustrator 19.1.0, SVG Export Plug-In . SVG Version: 6.00 Build 0)  -->
<svg version="1.1" id="Layer_1" xmlns="http://www.w3.org/2000/svg" xmlns:xlink="http://www.w3.org/1999/xlink" x="0px" y="0px"
	 viewBox="-4 6 20 20" style="enable-background:new -4 6 20 20;" xml:space="preserve">
<g>
	<polygon points="1.1,15.1 1.1,16.9 2.4,16 	"/>
	<polygon points="5.5,13.9 5.5,11.5 1.5,14.2 3.3,15.4 	"/>
	<polygon points="10.5,14.2 6.5,11.5 6.5,13.9 8.7,15.4 	"/>
	<polygon points="1.5,17.8 5.5,20.5 5.5,18.1 3.3,16.6 	"/>
	<polygon points="6.5,18.1 6.5,20.5 10.5,17.8 8.7,16.6 	"/>
	<polygon points="6,14.8 4.2,16 6,17.2 7.8,16 	"/>
	<path d="M6,6.4c-5.3,0-9.6,4.3-9.6,9.6c0,5.3,4.3,9.6,9.6,9.6c5.3,0,9.6-4.3,9.6-9.6C15.6,10.7,11.3,6.4,6,6.4z M11.9,17.8
		C11.9,17.8,11.9,17.9,11.9,17.8C11.9,17.9,11.9,17.9,11.9,17.8c0,0.1,0,0.1,0,0.1c0,0,0,0,0,0c0,0,0,0,0,0c0,0,0,0,0,0c0,0,0,0,0,0
		c0,0,0,0,0,0c0,0,0,0,0,0c0,0,0,0,0,0c0,0,0,0,0,0c0,0,0,0,0,0c0,0,0,0,0,0c0,0,0,0,0,0c0,0,0,0,0,0l-5.4,3.6
		c-0.1,0.1-0.2,0.1-0.3,0.1c-0.1,0-0.2,0-0.3-0.1l-5.4-3.6c0,0,0,0,0,0c0,0,0,0,0,0c0,0,0,0,0,0c0,0,0,0,0,0c0,0,0,0,0,0
		c0,0,0,0,0,0c0,0,0,0,0,0c0,0,0,0,0,0c0,0,0,0,0,0c0,0,0,0,0,0c0,0,0,0,0,0c0,0,0,0,0,0c0,0,0,0,0,0c0,0,0,0,0,0c0,0,0,0,0-0.1
		v-3.6c0,0,0,0,0-0.1c0,0,0,0,0,0c0,0,0,0,0,0c0,0,0,0,0,0c0,0,0,0,0,0c0,0,0,0,0,0c0,0,0,0,0,0c0,0,0,0,0,0c0,0,0,0,0,0
		c0,0,0,0,0,0c0,0,0,0,0,0c0,0,0,0,0,0c0,0,0,0,0,0c0,0,0,0,0,0c0,0,0,0,0,0l5.4-3.6c0.2-0.1,0.4-0.1,0.6,0l5.4,3.6c0,0,0,0,0,0
		c0,0,0,0,0,0c0,0,0,0,0,0c0,0,0,0,0,0c0,0,0,0,0,0c0,0,0,0,0,0c0,0,0,0,0,0c0,0,0,0,0,0c0,0,0,0,0,0c0,0,0,0,0,0c0,0,0,0,0,0
		c0,0,0,0,0,0c0,0,0,0,0,0c0,0,0,0,0,0c0,0,0,0,0,0.1V17.8z"/>
	<polygon points="10.9,16.9 10.9,15.1 9.6,16 	"/>
</g>
</svg>
