<?xml version="1.0" encoding="utf-8"?>
<!-- Generator: Adobe Illustrator 19.1.0, SVG Export Plug-In . SVG Version: 6.00 Build 0)  -->
<svg version="1.1" id="Layer_1" xmlns="http://www.w3.org/2000/svg" xmlns:xlink="http://www.w3.org/1999/xlink" x="0px" y="0px"
	 viewBox="-4 6 20 20" style="enable-background:new -4 6 20 20;" xml:space="preserve">
<path d="M6.3,16c0,0,0.1,0,0.1,0c-0.1-0.2-0.2-0.4-0.3-0.6c-1.9,0.6-3.7,0.6-4,0.6c0,0,0,0.1,0,0.1c0,0.9,0.3,1.9,1,2.6
	C3.2,18.2,4.3,16.6,6.3,16z M3.6,19.1c0.7,0.5,1.5,0.8,2.4,0.8c0.5,0,1-0.1,1.5-0.3c-0.1-0.4-0.3-1.5-0.8-2.9
	C4.6,17.5,3.7,18.9,3.6,19.1z M8.6,13c-0.7-0.6-1.6-0.9-2.6-0.9c-0.3,0-0.6,0-0.9,0.1c0.2,0.3,0.8,1.1,1.4,2.2
	C7.9,13.9,8.4,13.2,8.6,13z M5.7,14.7c-0.6-1.1-1.2-2-1.4-2.2C3.2,13,2.4,14,2.2,15.1h0C2.6,15.1,4,15.1,5.7,14.7z M7.5,16.5
	c0.5,1.3,0.7,2.4,0.7,2.7c0.9-0.6,1.4-1.5,1.6-2.5c-0.2-0.1-0.8-0.2-1.6-0.2C8,16.4,7.8,16.5,7.5,16.5z M6,6.4
	c-5.3,0-9.6,4.3-9.6,9.6s4.3,9.6,9.6,9.6s9.6-4.3,9.6-9.6S11.3,6.4,6,6.4z M6,20.7c-2.6,0-4.7-2.1-4.7-4.7c0-2.6,2.1-4.7,4.7-4.7
	c2.6,0,4.7,2.1,4.7,4.7S8.6,20.7,6,20.7z M6.9,15.1c0.1,0.2,0.2,0.4,0.2,0.5c0,0.1,0,0.1,0.1,0.2c0.3,0,0.6,0,0.9,0
	c0.9,0,1.6,0.1,1.8,0.2c0-0.9-0.3-1.7-0.9-2.3C8.9,13.8,8.2,14.5,6.9,15.1z"/>
</svg>
