<?xml version="1.0" encoding="utf-8"?>
<!-- Generator: Adobe Illustrator 19.1.0, SVG Export Plug-In . SVG Version: 6.00 Build 0)  -->
<svg version="1.1" id="Layer_1" xmlns="http://www.w3.org/2000/svg" xmlns:xlink="http://www.w3.org/1999/xlink" x="0px" y="0px"
	 viewBox="-4 6 20 20" style="enable-background:new -4 6 20 20;" xml:space="preserve">
<path d="M6,6.4c-5.3,0-9.6,4.3-9.6,9.6s4.3,9.6,9.6,9.6s9.6-4.3,9.6-9.6S11.3,6.4,6,6.4z M3.7,20H1.7v-6.3h1.9
	C3.7,13.7,3.7,20,3.7,20z M2.7,13c-0.6,0-1-0.4-1-1c0-0.5,0.4-1,1-1s1,0.4,1,1C3.7,12.5,3.3,13,2.7,13z M10.8,20H8.8v-3.5
	c0-0.8-0.3-1.4-1-1.4c-0.5,0-0.9,0.4-1,0.7c-0.1,0.1-0.1,0.3-0.1,0.5V20H4.8v-4.3c0-0.8,0-1.4-0.1-2h1.7l0.1,0.9h0
	c0.3-0.4,0.9-1,1.9-1c1.3,0,2.2,0.9,2.2,2.7C10.8,16.3,10.8,20,10.8,20z"/>
</svg>
